<svg width="33" height="25" viewBox="0 0 33 25" fill="none" xmlns="http://www.w3.org/2000/svg">
<path fill-rule="evenodd" clip-rule="evenodd" d="M13.6228 22.9407C13.2539 22.9799 12.8793 23 12.5 23C6.70101 23 2 18.299 2 12.5C2 6.70101 6.70101 2 12.5 2C12.8793 2 13.2539 2.02011 13.6228 2.05933C10.2344 4.29532 7.99863 8.13657 7.99863 12.5C7.99863 16.8634 10.2344 20.7047 13.6228 22.9407ZM16.4993 22.2115C12.6841 20.6386 9.99863 16.8829 9.99863 12.5C9.99863 8.11708 12.6841 4.36137 16.4993 2.78849C20.3146 4.36137 23 8.11708 23 12.5C23 16.8829 20.3146 20.6386 16.4993 22.2115ZM16.4993 24.3465C15.2436 24.7703 13.8986 25 12.5 25C5.59644 25 0 19.4036 0 12.5C0 5.59644 5.59644 0 12.5 0C13.8986 0 15.2436 0.229712 16.4993 0.653466C17.755 0.229712 19.1 0 20.4986 0C27.4022 0 32.9986 5.59644 32.9986 12.5C32.9986 19.4036 27.4022 25 20.4986 25C19.1 25 17.755 24.7703 16.4993 24.3465ZM19.3758 2.05933C19.7447 2.02011 20.1193 2 20.4986 2C26.2976 2 30.9986 6.70101 30.9986 12.5C30.9986 18.299 26.2976 23 20.4986 23C20.1193 23 19.7447 22.9799 19.3758 22.9407C22.7643 20.7047 25 16.8634 25 12.5C25 8.13657 22.7643 4.29532 19.3758 2.05933Z" fill="#0F0BC7"/>
</svg>
